<svg width="420" height="467" viewBox="0 0 420 467" fill="none" xmlns="http://www.w3.org/2000/svg">
<path d="M263.93 1.66636L7.92087 111.071C1.88908 113.649 -0.910058 120.629 1.667 126.659L140.006 450.374C144.233 460.267 153.915 466.58 164.671 466.459C175.426 466.336 184.964 459.811 188.969 449.827C190.728 445.442 194.091 442.003 198.436 440.146C202.782 438.289 207.59 438.236 211.975 439.995C225.545 445.439 240.063 444.856 252.552 439.519C265.04 434.183 275.496 424.093 280.94 410.524C283.382 404.437 280.427 397.522 274.339 395.078C268.253 392.637 261.338 395.592 258.893 401.679C252.883 416.66 235.802 423.96 220.82 417.949C199.611 409.441 175.432 419.772 166.923 440.984C166.468 442.114 165.619 442.694 164.404 442.707C163.185 442.721 162.326 442.16 161.847 441.04L64.9833 214.377L299.15 114.306L396.014 340.97C396.492 342.089 396.304 343.099 395.452 343.97C394.599 344.842 393.597 345.054 392.464 344.599C371.257 336.091 347.078 346.423 338.567 367.631L333.614 379.977C331.172 386.065 334.127 392.98 340.215 395.423C346.301 397.864 353.216 394.909 355.66 388.823L360.614 376.476C362.373 372.092 365.736 368.653 370.081 366.796C374.426 364.939 379.234 364.886 383.62 366.645C393.604 370.651 404.916 368.269 412.434 360.578C419.954 352.888 422.082 341.527 417.856 331.637L279.517 7.92084C276.941 1.88987 269.962 -0.911308 263.93 1.66636ZM55.6497 192.534L28.1767 128.246L262.343 28.1761L289.816 92.4635L55.6497 192.534Z" fill="white"/>
</svg>
